<!DOCTYPE svg PUBLIC "-//W3C//DTD SVG 1.1//EN" "http://www.w3.org/Graphics/SVG/1.1/DTD/svg11.dtd">
<!-- Uploaded to: SVG Repo, www.svgrepo.com, Transformed by: SVG Repo Mixer Tools -->
<svg fill="#637381" width="800px" height="800px" viewBox="0 0 24 24" id="cashier-machine" data-name="Line Color" xmlns="http://www.w3.org/2000/svg" class="icon line-color" stroke="#637381">
<g id="SVGRepo_bgCarrier" stroke-width="0"/>
<g id="SVGRepo_tracerCarrier" stroke-linecap="round" stroke-linejoin="round"/>
<g id="SVGRepo_iconCarrier">
<path id="secondary" d="M19,4V6a1,1,0,0,1-1,1H12a1,1,0,0,1-1-1V4a1,1,0,0,1,1-1h6A1,1,0,0,1,19,4ZM15,7v4" style="fill: none; stroke: #637381; stroke-linecap: round; stroke-linejoin: round; stroke-width: 2;"/>
<path id="primary" d="M19.23,11.68a1,1,0,0,0-.95-.68H5.72a1,1,0,0,0-1,.68L3,17v3a1,1,0,0,0,1,1H20a1,1,0,0,0,1-1V17ZM3,17v3a1,1,0,0,0,1,1H20a1,1,0,0,0,1-1V17Z" style="fill: none; stroke: #637381000000; stroke-linecap: round; stroke-linejoin: round; stroke-width: 2;"/>
</g>
</svg>